<svg width="201" height="30" viewBox="0 0 201 30" fill="none" xmlns="http://www.w3.org/2000/svg">
<path d="M6.015 4.745V24.45H15.465L14.87 29H0.275V4.745H6.015ZM32.5425 23.61C32.5425 24.31 32.6359 24.8233 32.8225 25.15C33.0325 25.4767 33.3592 25.7217 33.8025 25.885L32.6475 29.49C31.5042 29.3967 30.5709 29.1517 29.8475 28.755C29.1242 28.335 28.5642 27.6817 28.1675 26.795C26.9542 28.6617 25.0875 29.595 22.5675 29.595C20.7242 29.595 19.2542 29.0583 18.1575 27.985C17.0609 26.9117 16.5125 25.5117 16.5125 23.785C16.5125 21.755 17.2592 20.2033 18.7525 19.13C20.2459 18.0567 22.4042 17.52 25.2275 17.52H27.1175V16.715C27.1175 15.6183 26.8842 14.8717 26.4175 14.475C25.9509 14.055 25.1342 13.845 23.9675 13.845C23.3609 13.845 22.6259 13.9383 21.7625 14.125C20.8992 14.2883 20.0125 14.5217 19.1025 14.825L17.8425 11.185C19.0092 10.7417 20.1992 10.4033 21.4125 10.17C22.6492 9.93667 23.7925 9.82 24.8425 9.82C27.5025 9.82 29.4509 10.3683 30.6875 11.465C31.9242 12.5617 32.5425 14.2067 32.5425 16.4V23.61ZM24.1775 25.64C25.4375 25.64 26.4175 25.045 27.1175 23.855V20.565H25.7525C24.4925 20.565 23.5475 20.7867 22.9175 21.23C22.3109 21.6733 22.0075 22.3617 22.0075 23.295C22.0075 24.0417 22.1942 24.625 22.5675 25.045C22.9642 25.4417 23.5009 25.64 24.1775 25.64ZM42.4773 10.415V29H36.9473V10.415H42.4773ZM39.6773 0.614998C40.634 0.614998 41.4157 0.918332 42.0223 1.525C42.6523 2.10833 42.9673 2.855 42.9673 3.765C42.9673 4.675 42.6523 5.43333 42.0223 6.04C41.4157 6.62333 40.634 6.915 39.6773 6.915C38.7207 6.915 37.939 6.62333 37.3323 6.04C36.7257 5.43333 36.4223 4.675 36.4223 3.765C36.4223 2.855 36.7257 2.10833 37.3323 1.525C37.939 0.918332 38.7207 0.614998 39.6773 0.614998ZM53.3703 9.82C54.7003 9.82 55.9486 10.0183 57.1153 10.415C58.2819 10.8117 59.3086 11.3717 60.1953 12.095L58.1653 15.21C56.6486 14.2533 55.1203 13.775 53.5803 13.775C52.8569 13.775 52.2969 13.9033 51.9003 14.16C51.5269 14.3933 51.3403 14.7317 51.3403 15.175C51.3403 15.525 51.4219 15.8167 51.5853 16.05C51.7719 16.26 52.1336 16.4817 52.6703 16.715C53.2069 16.9483 54.0353 17.2283 55.1553 17.555C57.0919 18.115 58.5269 18.85 59.4603 19.76C60.4169 20.6467 60.8953 21.8833 60.8953 23.47C60.8953 24.73 60.5336 25.8267 59.8103 26.76C59.0869 27.67 58.0953 28.37 56.8353 28.86C55.5753 29.35 54.1753 29.595 52.6353 29.595C51.0719 29.595 49.6136 29.35 48.2603 28.86C46.9303 28.37 45.7986 27.6933 44.8653 26.83L47.5603 23.82C49.1236 25.0333 50.7686 25.64 52.4953 25.64C53.3353 25.64 53.9886 25.4883 54.4553 25.185C54.9453 24.8817 55.1903 24.45 55.1903 23.89C55.1903 23.4467 55.0969 23.0967 54.9103 22.84C54.7236 22.5833 54.3619 22.35 53.8253 22.14C53.2886 21.9067 52.4369 21.6267 51.2703 21.3C49.4269 20.7633 48.0503 20.0167 47.1403 19.06C46.2303 18.1033 45.7753 16.9133 45.7753 15.49C45.7753 14.4167 46.0786 13.46 46.6853 12.62C47.3153 11.7567 48.2019 11.08 49.3453 10.59C50.5119 10.0767 51.8536 9.82 53.3703 9.82ZM85.0699 16.155C86.6799 16.4583 87.9866 17.0533 88.9899 17.94C90.0166 18.8267 90.5299 20.1567 90.5299 21.93C90.5299 24.52 89.5966 26.3517 87.7299 27.425C85.8866 28.475 83.2966 29 79.9599 29H72.1549V4.745H79.0149C82.4215 4.745 85.0232 5.235 86.8199 6.215C88.6166 7.17167 89.5149 8.74667 89.5149 10.94C89.5149 12.3633 89.0832 13.5183 88.2199 14.405C87.3799 15.2683 86.3299 15.8517 85.0699 16.155ZM77.8949 8.805V14.44H80.0299C82.4566 14.44 83.6699 13.46 83.6699 11.5C83.6699 10.52 83.3432 9.83167 82.6899 9.435C82.0366 9.015 80.9982 8.805 79.5749 8.805H77.8949ZM79.9949 24.835C81.5115 24.835 82.6549 24.6133 83.4249 24.17C84.2182 23.7033 84.6149 22.8517 84.6149 21.615C84.6149 19.375 83.2149 18.255 80.4149 18.255H77.8949V24.835H79.9949ZM108.421 23.61C108.421 24.31 108.515 24.8233 108.701 25.15C108.911 25.4767 109.238 25.7217 109.681 25.885L108.526 29.49C107.383 29.3967 106.45 29.1517 105.726 28.755C105.003 28.335 104.443 27.6817 104.046 26.795C102.833 28.6617 100.966 29.595 98.4464 29.595C96.6031 29.595 95.1331 29.0583 94.0364 27.985C92.9398 26.9117 92.3914 25.5117 92.3914 23.785C92.3914 21.755 93.1381 20.2033 94.6314 19.13C96.1248 18.0567 98.2831 17.52 101.106 17.52H102.996V16.715C102.996 15.6183 102.763 14.8717 102.296 14.475C101.83 14.055 101.013 13.845 99.8464 13.845C99.2398 13.845 98.5048 13.9383 97.6414 14.125C96.7781 14.2883 95.8914 14.5217 94.9814 14.825L93.7214 11.185C94.8881 10.7417 96.0781 10.4033 97.2914 10.17C98.5281 9.93667 99.6714 9.82 100.721 9.82C103.381 9.82 105.33 10.3683 106.566 11.465C107.803 12.5617 108.421 14.2067 108.421 16.4V23.61ZM100.056 25.64C101.316 25.64 102.296 25.045 102.996 23.855V20.565H101.631C100.371 20.565 99.4264 20.7867 98.7964 21.23C98.1898 21.6733 97.8864 22.3617 97.8864 23.295C97.8864 24.0417 98.0731 24.625 98.4464 25.045C98.8431 25.4417 99.3798 25.64 100.056 25.64ZM122.906 9.89C123.583 9.89 124.201 9.97167 124.761 10.135L123.886 15.49C123.186 15.3267 122.626 15.245 122.206 15.245C121.11 15.245 120.27 15.63 119.686 16.4C119.126 17.1467 118.683 18.2783 118.356 19.795V29H112.826V10.415H117.656L118.111 14.02C118.531 12.7367 119.161 11.7333 120.001 11.01C120.865 10.2633 121.833 9.89 122.906 9.89ZM137.409 9.82C139.626 9.82 141.329 10.695 142.519 12.445C143.709 14.1717 144.304 16.5983 144.304 19.725C144.304 21.6383 144.001 23.3417 143.394 24.835C142.811 26.3283 141.959 27.495 140.839 28.335C139.742 29.175 138.436 29.595 136.919 29.595C135.916 29.595 134.994 29.385 134.154 28.965C133.337 28.545 132.637 27.9617 132.054 27.215L131.774 29H126.874V3.03L132.404 2.435V12.305C132.964 11.535 133.676 10.9283 134.539 10.485C135.426 10.0417 136.382 9.82 137.409 9.82ZM135.309 25.57C137.479 25.57 138.564 23.6217 138.564 19.725C138.564 17.5083 138.307 15.98 137.794 15.14C137.281 14.3 136.534 13.88 135.554 13.88C134.317 13.88 133.267 14.6033 132.404 16.05V23.785C132.754 24.345 133.174 24.7883 133.664 25.115C134.177 25.4183 134.726 25.57 135.309 25.57ZM155.808 9.82C158.655 9.82 160.883 10.695 162.493 12.445C164.103 14.1717 164.908 16.5983 164.908 19.725C164.908 21.7083 164.535 23.4467 163.788 24.94C163.065 26.41 162.015 27.5533 160.638 28.37C159.285 29.1867 157.675 29.595 155.808 29.595C152.985 29.595 150.756 28.7317 149.123 27.005C147.513 25.255 146.708 22.8167 146.708 19.69C146.708 17.7067 147.07 15.98 147.793 14.51C148.54 13.0167 149.59 11.8617 150.943 11.045C152.32 10.2283 153.941 9.82 155.808 9.82ZM155.808 13.88C154.688 13.88 153.848 14.3583 153.288 15.315C152.728 16.2483 152.448 17.7067 152.448 19.69C152.448 21.72 152.716 23.2017 153.253 24.135C153.813 25.0683 154.665 25.535 155.808 25.535C156.928 25.535 157.768 25.0683 158.328 24.135C158.888 23.1783 159.168 21.7083 159.168 19.725C159.168 17.695 158.888 16.2133 158.328 15.28C157.791 14.3467 156.951 13.88 155.808 13.88ZM174.742 9.82C176.072 9.82 177.321 10.0183 178.487 10.415C179.654 10.8117 180.681 11.3717 181.567 12.095L179.537 15.21C178.021 14.2533 176.492 13.775 174.952 13.775C174.229 13.775 173.669 13.9033 173.272 14.16C172.899 14.3933 172.712 14.7317 172.712 15.175C172.712 15.525 172.794 15.8167 172.957 16.05C173.144 16.26 173.506 16.4817 174.042 16.715C174.579 16.9483 175.407 17.2283 176.527 17.555C178.464 18.115 179.899 18.85 180.832 19.76C181.789 20.6467 182.267 21.8833 182.267 23.47C182.267 24.73 181.906 25.8267 181.182 26.76C180.459 27.67 179.467 28.37 178.207 28.86C176.947 29.35 175.547 29.595 174.007 29.595C172.444 29.595 170.986 29.35 169.632 28.86C168.302 28.37 167.171 27.6933 166.237 26.83L168.932 23.82C170.496 25.0333 172.141 25.64 173.867 25.64C174.707 25.64 175.361 25.4883 175.827 25.185C176.317 24.8817 176.562 24.45 176.562 23.89C176.562 23.4467 176.469 23.0967 176.282 22.84C176.096 22.5833 175.734 22.35 175.197 22.14C174.661 21.9067 173.809 21.6267 172.642 21.3C170.799 20.7633 169.422 20.0167 168.512 19.06C167.602 18.1033 167.147 16.9133 167.147 15.49C167.147 14.4167 167.451 13.46 168.057 12.62C168.687 11.7567 169.574 11.08 170.717 10.59C171.884 10.0767 173.226 9.82 174.742 9.82ZM199.544 23.61C199.544 24.31 199.638 24.8233 199.824 25.15C200.034 25.4767 200.361 25.7217 200.804 25.885L199.649 29.49C198.506 29.3967 197.573 29.1517 196.849 28.755C196.126 28.335 195.566 27.6817 195.169 26.795C193.956 28.6617 192.089 29.595 189.569 29.595C187.726 29.595 186.256 29.0583 185.159 27.985C184.063 26.9117 183.514 25.5117 183.514 23.785C183.514 21.755 184.261 20.2033 185.754 19.13C187.248 18.0567 189.406 17.52 192.229 17.52H194.119V16.715C194.119 15.6183 193.886 14.8717 193.419 14.475C192.953 14.055 192.136 13.845 190.969 13.845C190.363 13.845 189.628 13.9383 188.764 14.125C187.901 14.2883 187.014 14.5217 186.104 14.825L184.844 11.185C186.011 10.7417 187.201 10.4033 188.414 10.17C189.651 9.93667 190.794 9.82 191.844 9.82C194.504 9.82 196.453 10.3683 197.689 11.465C198.926 12.5617 199.544 14.2067 199.544 16.4V23.61ZM191.179 25.64C192.439 25.64 193.419 25.045 194.119 23.855V20.565H192.754C191.494 20.565 190.549 20.7867 189.919 21.23C189.313 21.6733 189.009 22.3617 189.009 23.295C189.009 24.0417 189.196 24.625 189.569 25.045C189.966 25.4417 190.503 25.64 191.179 25.64Z" fill="#141414"/>
</svg>
